0
SECTION
2
ENTITIES
0
LINE
8
EdgeCuts
10
0.0
20
120.46
30
0.0
11
0.0
21
4.0
31
0.0
0
LINE
8
EdgeCuts
10
0.0
20
4.0
30
0.0
11
0.0
21
4.0
31
0.0
0
LINE
8
EdgeCuts
10
0.0
20
4.0
30
0.0
11
0.196
21
2.764
31
0.0
0
LINE
8
EdgeCuts
10
0.196
20
2.764
30
0.0
11
0.764
21
1.649
31
0.0
0
LINE
8
EdgeCuts
10
0.764
20
1.649
30
0.0
11
1.649
21
0.764
31
0.0
0
LINE
8
EdgeCuts
10
1.649
20
0.764
30
0.0
11
2.764
21
0.196
31
0.0
0
LINE
8
EdgeCuts
10
2.764
20
0.196
30
0.0
11
4.0
21
0.0
31
0.0
0
LINE
8
EdgeCuts
10
4.0
20
0.0
30
0.0
11
43.0
21
-0.0
31
0.0
0
LINE
8
EdgeCuts
10
43.0
20
-0.0
30
0.0
11
43.0
21
0.0
31
0.0
0
LINE
8
EdgeCuts
10
43.0
20
0.0
30
0.0
11
45.731
21
0.269
31
0.0
0
LINE
8
EdgeCuts
10
45.731
20
0.269
30
0.0
11
48.358
21
1.066
31
0.0
0
LINE
8
EdgeCuts
10
48.358
20
1.066
30
0.0
11
50.778
21
2.359
31
0.0
0
LINE
8
EdgeCuts
10
50.778
20
2.359
30
0.0
11
52.899
21
4.101
31
0.0
0
LINE
8
EdgeCuts
10
52.899
20
4.101
30
0.0
11
54.641
21
6.222
31
0.0
0
LINE
8
EdgeCuts
10
54.641
20
6.222
30
0.0
11
55.934
21
8.642
31
0.0
0
LINE
8
EdgeCuts
10
55.934
20
8.642
30
0.0
11
56.731
21
11.269
31
0.0
0
LINE
8
EdgeCuts
10
56.731
20
11.269
30
0.0
11
57.0
21
14.0
31
0.0
0
LINE
8
EdgeCuts
10
57.0
20
14.0
30
0.0
11
60.081
21
18.823
31
0.0
0
LINE
8
EdgeCuts
10
60.081
20
18.823
30
0.0
11
60.693
21
23.646
31
0.0
0
LINE
8
EdgeCuts
10
60.693
20
23.646
30
0.0
11
61.234
21
28.469
31
0.0
0
LINE
8
EdgeCuts
10
61.234
20
28.469
30
0.0
11
61.703
21
33.292
31
0.0
0
LINE
8
EdgeCuts
10
61.703
20
33.292
30
0.0
11
62.099
21
38.115
31
0.0
0
LINE
8
EdgeCuts
10
62.099
20
38.115
30
0.0
11
62.423
21
42.938
31
0.0
0
LINE
8
EdgeCuts
10
62.423
20
42.938
30
0.0
11
62.676
21
47.761
31
0.0
0
LINE
8
EdgeCuts
10
62.676
20
47.761
30
0.0
11
62.856
21
52.584
31
0.0
0
LINE
8
EdgeCuts
10
62.856
20
52.584
30
0.0
11
62.964
21
57.407
31
0.0
0
LINE
8
EdgeCuts
10
62.964
20
57.407
30
0.0
11
63.0
21
62.23
31
0.0
0
LINE
8
EdgeCuts
10
63.0
20
62.23
30
0.0
11
62.964
21
67.053
31
0.0
0
LINE
8
EdgeCuts
10
62.964
20
67.053
30
0.0
11
62.856
21
71.876
31
0.0
0
LINE
8
EdgeCuts
10
62.856
20
71.876
30
0.0
11
62.676
21
76.699
31
0.0
0
LINE
8
EdgeCuts
10
62.676
20
76.699
30
0.0
11
62.423
21
81.522
31
0.0
0
LINE
8
EdgeCuts
10
62.423
20
81.522
30
0.0
11
62.099
21
86.345
31
0.0
0
LINE
8
EdgeCuts
10
62.099
20
86.345
30
0.0
11
61.703
21
91.168
31
0.0
0
LINE
8
EdgeCuts
10
61.703
20
91.168
30
0.0
11
61.234
21
95.991
31
0.0
0
LINE
8
EdgeCuts
10
61.234
20
95.991
30
0.0
11
60.693
21
100.814
31
0.0
0
LINE
8
EdgeCuts
10
60.693
20
100.814
30
0.0
11
60.081
21
105.637
31
0.0
0
LINE
8
EdgeCuts
10
60.081
20
105.637
30
0.0
11
57.0
21
110.46
31
0.0
0
LINE
8
EdgeCuts
10
57.0
20
110.46
30
0.0
11
56.731
21
113.191
31
0.0
0
LINE
8
EdgeCuts
10
56.731
20
113.191
30
0.0
11
55.934
21
115.818
31
0.0
0
LINE
8
EdgeCuts
10
55.934
20
115.818
30
0.0
11
54.641
21
118.238
31
0.0
0
LINE
8
EdgeCuts
10
54.641
20
118.238
30
0.0
11
52.899
21
120.359
31
0.0
0
LINE
8
EdgeCuts
10
52.899
20
120.359
30
0.0
11
50.778
21
122.101
31
0.0
0
LINE
8
EdgeCuts
10
50.778
20
122.101
30
0.0
11
48.358
21
123.394
31
0.0
0
LINE
8
EdgeCuts
10
48.358
20
123.394
30
0.0
11
45.731
21
124.191
31
0.0
0
LINE
8
EdgeCuts
10
45.731
20
124.191
30
0.0
11
43.0
21
124.46
31
0.0
0
LINE
8
EdgeCuts
10
43.0
20
124.46
30
0.0
11
4.0
21
124.46
31
0.0
0
LINE
8
EdgeCuts
10
4.0
20
124.46
30
0.0
11
4.0
21
124.46
31
0.0
0
LINE
8
EdgeCuts
10
4.0
20
124.46
30
0.0
11
2.764
21
124.264
31
0.0
0
LINE
8
EdgeCuts
10
2.764
20
124.264
30
0.0
11
1.649
21
123.696
31
0.0
0
LINE
8
EdgeCuts
10
1.649
20
123.696
30
0.0
11
0.764
21
122.811
31
0.0
0
LINE
8
EdgeCuts
10
0.764
20
122.811
30
0.0
11
0.196
21
121.696
31
0.0
0
LINE
8
EdgeCuts
10
0.196
20
121.696
30
0.0
11
0.0
21
120.46
31
0.0
0
LINE
8
EdgeCuts
10
0.0
20
120.46
30
0.0
11
0.0
21
120.46
31
0.0
0
ENDSEC
0
EOF
