0
SECTION
2
ENTITIES
0
LINE
8
EdgeCuts
10
63.0
20
104.06
30
0.0
11
63.0
21
4.0
31
0.0
0
LINE
8
EdgeCuts
10
63.0
20
4.0
30
0.0
11
63.0
21
4.0
31
0.0
0
LINE
8
EdgeCuts
10
63.0
20
4.0
30
0.0
11
62.804
21
2.764
31
0.0
0
LINE
8
EdgeCuts
10
62.804
20
2.764
30
0.0
11
62.236
21
1.649
31
0.0
0
LINE
8
EdgeCuts
10
62.236
20
1.649
30
0.0
11
61.351
21
0.764
31
0.0
0
LINE
8
EdgeCuts
10
61.351
20
0.764
30
0.0
11
60.236
21
0.196
31
0.0
0
LINE
8
EdgeCuts
10
60.236
20
0.196
30
0.0
11
59.0
21
0.0
31
0.0
0
LINE
8
EdgeCuts
10
59.0
20
0.0
30
0.0
11
20.0
21
0.0
31
0.0
0
LINE
8
EdgeCuts
10
20.0
20
0.0
30
0.0
11
20.0
21
0.0
31
0.0
0
LINE
8
EdgeCuts
10
20.0
20
0.0
30
0.0
11
17.269
21
0.269
31
0.0
0
LINE
8
EdgeCuts
10
17.269
20
0.269
30
0.0
11
14.642
21
1.066
31
0.0
0
LINE
8
EdgeCuts
10
14.642
20
1.066
30
0.0
11
12.222
21
2.359
31
0.0
0
LINE
8
EdgeCuts
10
12.222
20
2.359
30
0.0
11
10.101
21
4.101
31
0.0
0
LINE
8
EdgeCuts
10
10.101
20
4.101
30
0.0
11
8.359
21
6.222
31
0.0
0
LINE
8
EdgeCuts
10
8.359
20
6.222
30
0.0
11
7.066
21
8.642
31
0.0
0
LINE
8
EdgeCuts
10
7.066
20
8.642
30
0.0
11
6.269
21
11.269
31
0.0
0
LINE
8
EdgeCuts
10
6.269
20
11.269
30
0.0
11
6.0
21
14.0
31
0.0
0
LINE
8
EdgeCuts
10
6.0
20
14.0
30
0.0
11
2.668
21
18.003
31
0.0
0
LINE
8
EdgeCuts
10
2.668
20
18.003
30
0.0
11
2.108
21
22.006
31
0.0
0
LINE
8
EdgeCuts
10
2.108
20
22.006
30
0.0
11
1.614
21
26.009
31
0.0
0
LINE
8
EdgeCuts
10
1.614
20
26.009
30
0.0
11
1.186
21
30.012
31
0.0
0
LINE
8
EdgeCuts
10
1.186
20
30.012
30
0.0
11
0.823
21
34.015
31
0.0
0
LINE
8
EdgeCuts
10
0.823
20
34.015
30
0.0
11
0.527
21
38.018
31
0.0
0
LINE
8
EdgeCuts
10
0.527
20
38.018
30
0.0
11
0.296
21
42.021
31
0.0
0
LINE
8
EdgeCuts
10
0.296
20
42.021
30
0.0
11
0.132
21
46.024
31
0.0
0
LINE
8
EdgeCuts
10
0.132
20
46.024
30
0.0
11
0.033
21
50.027
31
0.0
0
LINE
8
EdgeCuts
10
0.033
20
50.027
30
0.0
11
0.0
21
54.03
31
0.0
0
LINE
8
EdgeCuts
10
0.0
20
54.03
30
0.0
11
0.033
21
58.033
31
0.0
0
LINE
8
EdgeCuts
10
0.033
20
58.033
30
0.0
11
0.132
21
62.036
31
0.0
0
LINE
8
EdgeCuts
10
0.132
20
62.036
30
0.0
11
0.296
21
66.039
31
0.0
0
LINE
8
EdgeCuts
10
0.296
20
66.039
30
0.0
11
0.527
21
70.042
31
0.0
0
LINE
8
EdgeCuts
10
0.527
20
70.042
30
0.0
11
0.823
21
74.045
31
0.0
0
LINE
8
EdgeCuts
10
0.823
20
74.045
30
0.0
11
1.186
21
78.048
31
0.0
0
LINE
8
EdgeCuts
10
1.186
20
78.048
30
0.0
11
1.614
21
82.051
31
0.0
0
LINE
8
EdgeCuts
10
1.614
20
82.051
30
0.0
11
2.108
21
86.054
31
0.0
0
LINE
8
EdgeCuts
10
2.108
20
86.054
30
0.0
11
2.668
21
90.057
31
0.0
0
LINE
8
EdgeCuts
10
2.668
20
90.057
30
0.0
11
6.0
21
94.06
31
0.0
0
LINE
8
EdgeCuts
10
6.0
20
94.06
30
0.0
11
6.269
21
96.791
31
0.0
0
LINE
8
EdgeCuts
10
6.269
20
96.791
30
0.0
11
7.066
21
99.418
31
0.0
0
LINE
8
EdgeCuts
10
7.066
20
99.418
30
0.0
11
8.359
21
101.838
31
0.0
0
LINE
8
EdgeCuts
10
8.359
20
101.838
30
0.0
11
10.101
21
103.959
31
0.0
0
LINE
8
EdgeCuts
10
10.101
20
103.959
30
0.0
11
12.222
21
105.701
31
0.0
0
LINE
8
EdgeCuts
10
12.222
20
105.701
30
0.0
11
14.642
21
106.994
31
0.0
0
LINE
8
EdgeCuts
10
14.642
20
106.994
30
0.0
11
17.269
21
107.791
31
0.0
0
LINE
8
EdgeCuts
10
17.269
20
107.791
30
0.0
11
20.0
21
108.06
31
0.0
0
LINE
8
EdgeCuts
10
20.0
20
108.06
30
0.0
11
59.0
21
108.06
31
0.0
0
LINE
8
EdgeCuts
10
59.0
20
108.06
30
0.0
11
59.0
21
108.06
31
0.0
0
LINE
8
EdgeCuts
10
59.0
20
108.06
30
0.0
11
60.236
21
107.864
31
0.0
0
LINE
8
EdgeCuts
10
60.236
20
107.864
30
0.0
11
61.351
21
107.296
31
0.0
0
LINE
8
EdgeCuts
10
61.351
20
107.296
30
0.0
11
62.236
21
106.411
31
0.0
0
LINE
8
EdgeCuts
10
62.236
20
106.411
30
0.0
11
62.804
21
105.296
31
0.0
0
LINE
8
EdgeCuts
10
62.804
20
105.296
30
0.0
11
63.0
21
104.06
31
0.0
0
LINE
8
EdgeCuts
10
63.0
20
104.06
30
0.0
11
63.0
21
104.06
31
0.0
0
ENDSEC
0
EOF
