0
SECTION
2
ENTITIES
0
LINE
8
EdgeCuts
10
63.0
20
120.46
30
0.0
11
63.0
21
4.0
31
0.0
0
LINE
8
EdgeCuts
10
63.0
20
4.0
30
0.0
11
63.0
21
4.0
31
0.0
0
LINE
8
EdgeCuts
10
63.0
20
4.0
30
0.0
11
62.804
21
2.764
31
0.0
0
LINE
8
EdgeCuts
10
62.804
20
2.764
30
0.0
11
62.236
21
1.649
31
0.0
0
LINE
8
EdgeCuts
10
62.236
20
1.649
30
0.0
11
61.351
21
0.764
31
0.0
0
LINE
8
EdgeCuts
10
61.351
20
0.764
30
0.0
11
60.236
21
0.196
31
0.0
0
LINE
8
EdgeCuts
10
60.236
20
0.196
30
0.0
11
59.0
21
0.0
31
0.0
0
LINE
8
EdgeCuts
10
59.0
20
0.0
30
0.0
11
20.0
21
-0.0
31
0.0
0
LINE
8
EdgeCuts
10
20.0
20
-0.0
30
0.0
11
20.0
21
0.0
31
0.0
0
LINE
8
EdgeCuts
10
20.0
20
0.0
30
0.0
11
17.269
21
0.269
31
0.0
0
LINE
8
EdgeCuts
10
17.269
20
0.269
30
0.0
11
14.642
21
1.066
31
0.0
0
LINE
8
EdgeCuts
10
14.642
20
1.066
30
0.0
11
12.222
21
2.359
31
0.0
0
LINE
8
EdgeCuts
10
12.222
20
2.359
30
0.0
11
10.101
21
4.101
31
0.0
0
LINE
8
EdgeCuts
10
10.101
20
4.101
30
0.0
11
8.359
21
6.222
31
0.0
0
LINE
8
EdgeCuts
10
8.359
20
6.222
30
0.0
11
7.066
21
8.642
31
0.0
0
LINE
8
EdgeCuts
10
7.066
20
8.642
30
0.0
11
6.269
21
11.269
31
0.0
0
LINE
8
EdgeCuts
10
6.269
20
11.269
30
0.0
11
6.0
21
14.0
31
0.0
0
LINE
8
EdgeCuts
10
6.0
20
14.0
30
0.0
11
2.919
21
18.823
31
0.0
0
LINE
8
EdgeCuts
10
2.919
20
18.823
30
0.0
11
2.307
21
23.646
31
0.0
0
LINE
8
EdgeCuts
10
2.307
20
23.646
30
0.0
11
1.766
21
28.469
31
0.0
0
LINE
8
EdgeCuts
10
1.766
20
28.469
30
0.0
11
1.297
21
33.292
31
0.0
0
LINE
8
EdgeCuts
10
1.297
20
33.292
30
0.0
11
0.901
21
38.115
31
0.0
0
LINE
8
EdgeCuts
10
0.901
20
38.115
30
0.0
11
0.577
21
42.938
31
0.0
0
LINE
8
EdgeCuts
10
0.577
20
42.938
30
0.0
11
0.324
21
47.761
31
0.0
0
LINE
8
EdgeCuts
10
0.324
20
47.761
30
0.0
11
0.144
21
52.584
31
0.0
0
LINE
8
EdgeCuts
10
0.144
20
52.584
30
0.0
11
0.036
21
57.407
31
0.0
0
LINE
8
EdgeCuts
10
0.036
20
57.407
30
0.0
11
0.0
21
62.23
31
0.0
0
LINE
8
EdgeCuts
10
0.0
20
62.23
30
0.0
11
0.036
21
67.053
31
0.0
0
LINE
8
EdgeCuts
10
0.036
20
67.053
30
0.0
11
0.144
21
71.876
31
0.0
0
LINE
8
EdgeCuts
10
0.144
20
71.876
30
0.0
11
0.324
21
76.699
31
0.0
0
LINE
8
EdgeCuts
10
0.324
20
76.699
30
0.0
11
0.577
21
81.522
31
0.0
0
LINE
8
EdgeCuts
10
0.577
20
81.522
30
0.0
11
0.901
21
86.345
31
0.0
0
LINE
8
EdgeCuts
10
0.901
20
86.345
30
0.0
11
1.297
21
91.168
31
0.0
0
LINE
8
EdgeCuts
10
1.297
20
91.168
30
0.0
11
1.766
21
95.991
31
0.0
0
LINE
8
EdgeCuts
10
1.766
20
95.991
30
0.0
11
2.307
21
100.814
31
0.0
0
LINE
8
EdgeCuts
10
2.307
20
100.814
30
0.0
11
2.919
21
105.637
31
0.0
0
LINE
8
EdgeCuts
10
2.919
20
105.637
30
0.0
11
6.0
21
110.46
31
0.0
0
LINE
8
EdgeCuts
10
6.0
20
110.46
30
0.0
11
6.269
21
113.191
31
0.0
0
LINE
8
EdgeCuts
10
6.269
20
113.191
30
0.0
11
7.066
21
115.818
31
0.0
0
LINE
8
EdgeCuts
10
7.066
20
115.818
30
0.0
11
8.359
21
118.238
31
0.0
0
LINE
8
EdgeCuts
10
8.359
20
118.238
30
0.0
11
10.101
21
120.359
31
0.0
0
LINE
8
EdgeCuts
10
10.101
20
120.359
30
0.0
11
12.222
21
122.101
31
0.0
0
LINE
8
EdgeCuts
10
12.222
20
122.101
30
0.0
11
14.642
21
123.394
31
0.0
0
LINE
8
EdgeCuts
10
14.642
20
123.394
30
0.0
11
17.269
21
124.191
31
0.0
0
LINE
8
EdgeCuts
10
17.269
20
124.191
30
0.0
11
20.0
21
124.46
31
0.0
0
LINE
8
EdgeCuts
10
20.0
20
124.46
30
0.0
11
59.0
21
124.46
31
0.0
0
LINE
8
EdgeCuts
10
59.0
20
124.46
30
0.0
11
59.0
21
124.46
31
0.0
0
LINE
8
EdgeCuts
10
59.0
20
124.46
30
0.0
11
60.236
21
124.264
31
0.0
0
LINE
8
EdgeCuts
10
60.236
20
124.264
30
0.0
11
61.351
21
123.696
31
0.0
0
LINE
8
EdgeCuts
10
61.351
20
123.696
30
0.0
11
62.236
21
122.811
31
0.0
0
LINE
8
EdgeCuts
10
62.236
20
122.811
30
0.0
11
62.804
21
121.696
31
0.0
0
LINE
8
EdgeCuts
10
62.804
20
121.696
30
0.0
11
63.0
21
120.46
31
0.0
0
LINE
8
EdgeCuts
10
63.0
20
120.46
30
0.0
11
63.0
21
120.46
31
0.0
0
ENDSEC
0
EOF
