0
SECTION
2
ENTITIES
0
LINE
8
EdgeCuts
10
0.0
20
103.86
30
0.0
11
0.0
21
4.0
31
0.0
0
LINE
8
EdgeCuts
10
0.0
20
4.0
30
0.0
11
0.0
21
4.0
31
0.0
0
LINE
8
EdgeCuts
10
0.0
20
4.0
30
0.0
11
0.196
21
2.764
31
0.0
0
LINE
8
EdgeCuts
10
0.196
20
2.764
30
0.0
11
0.764
21
1.649
31
0.0
0
LINE
8
EdgeCuts
10
0.764
20
1.649
30
0.0
11
1.649
21
0.764
31
0.0
0
LINE
8
EdgeCuts
10
1.649
20
0.764
30
0.0
11
2.764
21
0.196
31
0.0
0
LINE
8
EdgeCuts
10
2.764
20
0.196
30
0.0
11
4.0
21
0.0
31
0.0
0
LINE
8
EdgeCuts
10
4.0
20
0.0
30
0.0
11
43.0
21
0.0
31
0.0
0
LINE
8
EdgeCuts
10
43.0
20
0.0
30
0.0
11
43.0
21
0.0
31
0.0
0
LINE
8
EdgeCuts
10
43.0
20
0.0
30
0.0
11
45.731
21
0.269
31
0.0
0
LINE
8
EdgeCuts
10
45.731
20
0.269
30
0.0
11
48.358
21
1.066
31
0.0
0
LINE
8
EdgeCuts
10
48.358
20
1.066
30
0.0
11
50.778
21
2.359
31
0.0
0
LINE
8
EdgeCuts
10
50.778
20
2.359
30
0.0
11
52.899
21
4.101
31
0.0
0
LINE
8
EdgeCuts
10
52.899
20
4.101
30
0.0
11
54.641
21
6.222
31
0.0
0
LINE
8
EdgeCuts
10
54.641
20
6.222
30
0.0
11
55.934
21
8.642
31
0.0
0
LINE
8
EdgeCuts
10
55.934
20
8.642
30
0.0
11
56.731
21
11.269
31
0.0
0
LINE
8
EdgeCuts
10
56.731
20
11.269
30
0.0
11
57.0
21
14.0
31
0.0
0
LINE
8
EdgeCuts
10
57.0
20
14.0
30
0.0
11
60.336
21
17.993
31
0.0
0
LINE
8
EdgeCuts
10
60.336
20
17.993
30
0.0
11
60.895
21
21.986
31
0.0
0
LINE
8
EdgeCuts
10
60.895
20
21.986
30
0.0
11
61.388
21
25.979
31
0.0
0
LINE
8
EdgeCuts
10
61.388
20
25.979
30
0.0
11
61.816
21
29.972
31
0.0
0
LINE
8
EdgeCuts
10
61.816
20
29.972
30
0.0
11
62.178
21
33.965
31
0.0
0
LINE
8
EdgeCuts
10
62.178
20
33.965
30
0.0
11
62.474
21
37.958
31
0.0
0
LINE
8
EdgeCuts
10
62.474
20
37.958
30
0.0
11
62.704
21
41.951
31
0.0
0
LINE
8
EdgeCuts
10
62.704
20
41.951
30
0.0
11
62.868
21
45.944
31
0.0
0
LINE
8
EdgeCuts
10
62.868
20
45.944
30
0.0
11
62.967
21
49.937
31
0.0
0
LINE
8
EdgeCuts
10
62.967
20
49.937
30
0.0
11
63.0
21
53.93
31
0.0
0
LINE
8
EdgeCuts
10
63.0
20
53.93
30
0.0
11
62.967
21
57.923
31
0.0
0
LINE
8
EdgeCuts
10
62.967
20
57.923
30
0.0
11
62.868
21
61.916
31
0.0
0
LINE
8
EdgeCuts
10
62.868
20
61.916
30
0.0
11
62.704
21
65.909
31
0.0
0
LINE
8
EdgeCuts
10
62.704
20
65.909
30
0.0
11
62.474
21
69.902
31
0.0
0
LINE
8
EdgeCuts
10
62.474
20
69.902
30
0.0
11
62.178
21
73.895
31
0.0
0
LINE
8
EdgeCuts
10
62.178
20
73.895
30
0.0
11
61.816
21
77.888
31
0.0
0
LINE
8
EdgeCuts
10
61.816
20
77.888
30
0.0
11
61.388
21
81.881
31
0.0
0
LINE
8
EdgeCuts
10
61.388
20
81.881
30
0.0
11
60.895
21
85.874
31
0.0
0
LINE
8
EdgeCuts
10
60.895
20
85.874
30
0.0
11
60.336
21
89.867
31
0.0
0
LINE
8
EdgeCuts
10
60.336
20
89.867
30
0.0
11
57.0
21
93.86
31
0.0
0
LINE
8
EdgeCuts
10
57.0
20
93.86
30
0.0
11
56.731
21
96.591
31
0.0
0
LINE
8
EdgeCuts
10
56.731
20
96.591
30
0.0
11
55.934
21
99.218
31
0.0
0
LINE
8
EdgeCuts
10
55.934
20
99.218
30
0.0
11
54.641
21
101.638
31
0.0
0
LINE
8
EdgeCuts
10
54.641
20
101.638
30
0.0
11
52.899
21
103.759
31
0.0
0
LINE
8
EdgeCuts
10
52.899
20
103.759
30
0.0
11
50.778
21
105.501
31
0.0
0
LINE
8
EdgeCuts
10
50.778
20
105.501
30
0.0
11
48.358
21
106.794
31
0.0
0
LINE
8
EdgeCuts
10
48.358
20
106.794
30
0.0
11
45.731
21
107.591
31
0.0
0
LINE
8
EdgeCuts
10
45.731
20
107.591
30
0.0
11
43.0
21
107.86
31
0.0
0
LINE
8
EdgeCuts
10
43.0
20
107.86
30
0.0
11
4.0
21
107.86
31
0.0
0
LINE
8
EdgeCuts
10
4.0
20
107.86
30
0.0
11
4.0
21
107.86
31
0.0
0
LINE
8
EdgeCuts
10
4.0
20
107.86
30
0.0
11
2.764
21
107.664
31
0.0
0
LINE
8
EdgeCuts
10
2.764
20
107.664
30
0.0
11
1.649
21
107.096
31
0.0
0
LINE
8
EdgeCuts
10
1.649
20
107.096
30
0.0
11
0.764
21
106.211
31
0.0
0
LINE
8
EdgeCuts
10
0.764
20
106.211
30
0.0
11
0.196
21
105.096
31
0.0
0
LINE
8
EdgeCuts
10
0.196
20
105.096
30
0.0
11
0.0
21
103.86
31
0.0
0
LINE
8
EdgeCuts
10
0.0
20
103.86
30
0.0
11
0.0
21
103.86
31
0.0
0
ENDSEC
0
EOF
